<?xml version="1.0" encoding="utf-8"?>
<!-- Generator: Adobe Illustrator 17.0.0, SVG Export Plug-In . SVG Version: 6.00 Build 0)  -->
<!DOCTYPE svg PUBLIC "-//W3C//DTD SVG 1.1//EN" "http://www.w3.org/Graphics/SVG/1.1/DTD/svg11.dtd">
<svg version="1.1" id="Layer_1" xmlns="http://www.w3.org/2000/svg" xmlns:xlink="http://www.w3.org/1999/xlink" x="0px" y="0px"
	 width="182px" height="19.576px" viewBox="0 0 182 19.576" enable-background="new 0 0 182 19.576" xml:space="preserve">
<g>
	<g>
		<path fill-rule="evenodd" clip-rule="evenodd" fill="#6A737B" d="M180.046,11.14c0,0.543-0.207,0.997-0.641,1.352
			c-0.434,0.365-0.977,0.553-1.618,0.553c-1.48,0-2.773-0.72-3.898-2.131v2.625c1.174,0.888,2.487,1.332,3.907,1.332
			c1.253,0,2.26-0.365,3.049-1.095c0.78-0.73,1.154-1.668,1.154-2.832c0-1.628-0.878-2.98-2.635-4.026l-1.598-0.937
			c-0.701-0.414-1.224-0.819-1.549-1.194c-0.326-0.385-0.483-0.789-0.483-1.224c0-0.483,0.227-0.888,0.661-1.194
			c0.434-0.316,0.987-0.474,1.668-0.474c1.204,0,2.329,0.493,3.365,1.5V1.046c-1.006-0.681-2.112-1.026-3.325-1.026
			c-1.263,0-2.289,0.365-3.079,1.076c-0.789,0.71-1.194,1.628-1.194,2.773c0,0.77,0.217,1.441,0.632,2.023
			c0.405,0.582,1.115,1.174,2.112,1.776l1.579,0.967C179.415,9.423,180.046,10.262,180.046,11.14z M161.387,14.682h8.417v-1.845
			h-6.335V8.328h5.93V6.473h-5.93v-4.42h6.128V0.207h-8.209V14.682z M148.432,14.702h8.594v-1.894h-6.522v-12.6h-2.072V14.702z
			 M140.587,14.702h2.082V0.207h-2.082V14.702z M123.961,2.033h4.963v12.669h2.082V2.033h5.052V0.197h-12.097V2.033z
			 M111.775,11.466l-9.769-11.258h-1.677v14.495h1.944V3.542l9.69,11.16h1.786V0.207h-1.973V11.466z M91.409,3.542
			c1.076,1.046,1.618,2.339,1.618,3.878c0,1.569-0.543,2.891-1.618,3.947c-1.085,1.056-2.437,1.589-4.046,1.589
			c-1.618,0-2.96-0.523-4.026-1.559c-1.066-1.026-1.608-2.329-1.608-3.888c0-1.618,0.543-2.94,1.598-3.976
			c1.076-1.046,2.437-1.559,4.095-1.559C88.992,1.973,90.324,2.496,91.409,3.542z M81.789,2.131c-1.47,1.411-2.2,3.207-2.2,5.378
			c0,2.102,0.73,3.858,2.181,5.259c1.45,1.391,3.266,2.102,5.457,2.102c2.279,0,4.184-0.71,5.683-2.102
			c1.5-1.401,2.26-3.177,2.26-5.309c0-2.141-0.75-3.917-2.24-5.328C91.439,0.71,89.574,0,87.334,0
			C85.104,0,83.249,0.71,81.789,2.131z M73.441,11.14c0,0.543-0.207,0.997-0.641,1.352c-0.434,0.365-0.977,0.553-1.628,0.553
			c-1.47,0-2.763-0.72-3.878-2.131v2.625c1.164,0.888,2.477,1.332,3.898,1.332c1.253,0,2.26-0.365,3.039-1.095
			c0.78-0.73,1.174-1.668,1.174-2.832c0-1.628-0.888-2.98-2.664-4.026L71.162,5.98c-0.71-0.414-1.224-0.819-1.549-1.194
			c-0.316-0.385-0.474-0.789-0.474-1.224c0-0.483,0.217-0.888,0.651-1.194c0.434-0.316,0.987-0.474,1.668-0.474
			c1.204,0,2.319,0.493,3.375,1.5V1.046c-1.006-0.681-2.121-1.026-3.335-1.026c-1.263,0-2.299,0.365-3.079,1.076
			c-0.809,0.71-1.194,1.628-1.194,2.773c0,0.77,0.207,1.441,0.622,2.023c0.424,0.582,1.125,1.174,2.112,1.776l1.579,0.967
			C72.82,9.423,73.441,10.262,73.441,11.14z M60.328,11.466L50.559,0.207h-1.677v14.495h1.954V3.542l9.68,11.16h1.786V0.207h-1.973
			V11.466z M40.998,6.473h-8.14V0.207h-2.062v14.495h2.062V8.387h8.14v6.315h2.072V0.207h-2.072V6.473z M21.925,3.542
			C23,4.588,23.543,5.881,23.543,7.42c0,1.569-0.543,2.891-1.618,3.947s-2.427,1.589-4.036,1.589c-1.608,0-2.96-0.523-4.036-1.559
			c-1.056-1.026-1.598-2.329-1.598-3.888c0-1.618,0.533-2.94,1.598-3.976c1.076-1.046,2.437-1.559,4.095-1.559
			C19.527,1.973,20.849,2.496,21.925,3.542z M12.304,2.131c-1.46,1.411-2.191,3.207-2.191,5.378c0,2.102,0.73,3.858,2.171,5.259
			c1.46,1.391,3.286,2.102,5.457,2.102c2.299,0,4.184-0.71,5.693-2.102c1.5-1.401,2.26-3.177,2.26-5.309
			c0-2.141-0.75-3.917-2.25-5.328C21.964,0.71,20.109,0,17.86,0C15.63,0,13.775,0.71,12.304,2.131z M2.921,14.268
			c0,1.194-0.099,1.973-0.286,2.329c-0.178,0.375-0.424,0.631-0.74,0.77c-0.316,0.148-0.77,0.227-1.372,0.227H0l0.385,1.934
			c0.326,0.039,0.543,0.049,0.671,0.049c0.858,0,1.589-0.187,2.2-0.572c0.602-0.385,1.056-0.888,1.322-1.529
			c0.276-0.641,0.405-1.628,0.405-2.96V0.207H2.921V14.268z"/>
	</g>
	<rect x="120.074" y="6.996" fill-rule="evenodd" clip-rule="evenodd" fill="#6A737B" width="2.99" height="3"/>
</g>
</svg>
